<svg width="86" height="52" viewBox="0 0 86 52" fill="none" xmlns="http://www.w3.org/2000/svg">
<path d="M82 29.5C83.933 29.5 85.5 27.933 85.5 26C85.5 24.067 83.933 22.5 82 22.5L82 29.5ZM1.52512 23.5251C0.158295 24.892 0.158295 27.108 1.52512 28.4749L23.799 50.7487C25.1658 52.1156 27.3819 52.1156 28.7487 50.7487C30.1156 49.3819 30.1156 47.1658 28.7487 45.799L8.94975 26L28.7487 6.20101C30.1156 4.83417 30.1156 2.61809 28.7487 1.25126C27.3819 -0.115577 25.1658 -0.115577 23.799 1.25126L1.52512 23.5251ZM82 22.5L4 22.5L4 29.5L82 29.5L82 22.5Z" fill="white" fill-opacity="0.6"/>
</svg>
